# xmcd
#
# Track frame offsets:
#	150
#	34135
#	52102
#	79052
#
# Disc length: 1427 seconds
#
# Revision: 1
# Processed by: cddbd v1.5.2PL0 Copyright (c) Steve Scherf et al.
# Submitted via: audiograbber 1.83.01
#
DISCID=2d059104
DTITLE=Inside Out - Stay (All Life Long)
DYEAR=1998
DGENRE=New Age
TTITLE0=Stay (All Life Long) (Original Extended Mix)
TTITLE1=Stay (All Life Long) (Radio Edit)
TTITLE2=Stay (All Life Long) (C.O.L.T. Mix)
TTITLE3=Stay (All Life Long) (Eternal Mix)
EXTD=P 1998 Scandinavian Records SRCDM 53465\nC 1998 Energy Production Srl
EXTT0=
EXTT1=
EXTT2=
EXTT3=
PLAYORDER=
